#N canvas 895 207 423 148 10;
#X obj 38 21 cnv 15 100 100 empty empty purity 20 12 0 14 -258113 -66577
0;
#N canvas 378 255 665 219 __guts__ 0;
#X obj -48 214 s;
#X obj -115 121 list split 1;
#X obj -115 163 list;
#X obj -115 142 t b s;
#X obj -115 183 list trim;
#X obj -134 18 netreceive 17777;
#X floatatom -41 39 5 0 0 0 - - -;
#X obj -30 119 spigot;
#X obj 9 561 netsend;
#X msg 162 519 connect localhost 15555;
#X obj 9 619 sel 1 0;
#X obj 199 543 delay 100;
#X obj -134 60 t a a a;
#X msg -125 655 send __connected__ 1;
#X obj -134 398 list trim;
#X obj -101 332 r __enable_confirm__;
#X obj -134 376 list prepend send __confirm__;
#X obj 3 99 r __enable_verbose__;
#X obj 133 330 r __ping__;
#X msg 133 352 send __pong__;
#X obj 9 507 spigot;
#X obj -134 354 spigot;
#X msg 311 396 send __ping__;
#X obj 9 587 t f f;
#X obj -30 139 print PD_received;
#X obj 111 641 spigot;
#X obj 144 621 r __enable_verbose__;
#X obj 111 661 print PD_sends;
#X obj 232 376 list trim;
#X text 99 30 Receives: __enable_verbose__ \, __enable_confirm__ \,
__ping__ \, __pong__;
#X obj 31 331 r __pong__;
#X obj 31 353 print __pong__;
#X text 100 58 Sends: __python__ \, __pong__;
#X obj 232 330 r __purity__;
#X obj 232 354 list prepend send;
#X msg -165 603 send __first_connected__ 1;
#X obj -192 546 spigot 1;
#X obj -192 574 t 0 b;
#X obj 162 469 loadbang;
#X obj 162 494 t b;
#X connect 1 0 3 0;
#X connect 1 1 2 1;
#X connect 2 0 4 0;
#X connect 3 0 2 0;
#X connect 3 1 0 1;
#X connect 4 0 0 0;
#X connect 5 0 12 0;
#X connect 5 1 6 0;
#X connect 7 0 24 0;
#X connect 8 0 23 0;
#X connect 9 0 8 0;
#X connect 10 0 13 0;
#X connect 10 0 36 0;
#X connect 10 1 11 0;
#X connect 11 0 9 0;
#X connect 12 0 21 0;
#X connect 12 1 1 0;
#X connect 12 2 7 0;
#X connect 13 0 20 0;
#X connect 14 0 20 0;
#X connect 15 0 21 1;
#X connect 16 0 14 0;
#X connect 17 0 7 1;
#X connect 18 0 19 0;
#X connect 19 0 20 0;
#X connect 20 0 8 0;
#X connect 20 0 25 0;
#X connect 21 0 16 0;
#X connect 22 0 20 0;
#X connect 23 0 10 0;
#X connect 23 1 20 1;
#X connect 25 0 27 0;
#X connect 26 0 25 1;
#X connect 28 0 20 0;
#X connect 30 0 31 0;
#X connect 33 0 34 0;
#X connect 34 0 28 0;
#X connect 35 0 20 0;
#X connect 36 0 37 0;
#X connect 37 0 36 1;
#X connect 37 1 35 0;
#X connect 38 0 39 0;
#X connect 39 0 9 0;
#X restore 63 83 pd __guts__;
#N canvas 573 135 450 300 __main__ 0;
#X restore 63 58 pd __main__;
#X obj 190 71 s __enable_verbose__;
#X obj 190 50 tgl 15 0 empty empty empty 17 7 0 10 -262144 -1 -1 1
1;
#X connect 4 0 3 0;
